<svg xmlns="http://www.w3.org/2000/svg" width="24" height="24" viewBox="0 0 24 24" fill="none" stroke="#3b82f6" stroke-width="2" stroke-linecap="round" stroke-linejoin="round">
    <path d="M13.73 21a2 2 0 0 1-3.46 0" fill="#3b82f6" stroke="white" stroke-width="1"/>
    <path d="M2 14h.01" fill="#3b82f6" stroke="white" stroke-width="1"/>
    <path d="M2 10h.01" fill="#3b82f6" stroke="white" stroke-width="1"/>
    <path d="M2 6h.01" fill="#3b82f6" stroke="white" stroke-width="1"/>
    <path d="M12 2a10 10 0 0 0-10 10v0a10 10 0 0 0 10 10v0a10 10 0 0 0 10-10v0a10 10 0 0 0-10-10z" fill="#3b82f6" stroke="white" stroke-width="1"/>
    <path d="M14.31 8H9.69a2 2 0 0 1 0-4h4.62a2 2 0 0 1 0 4z" fill="white" stroke="none"/>
    <path d="M12 18a4 4 0 0 0 4-4H8a4 4 0 0 0 4 4z" fill="white" stroke="none"/>
</svg>